<svg width="33" height="34" viewBox="0 0 33 34" fill="none" xmlns="http://www.w3.org/2000/svg">
<rect width="33" height="34" fill="#F5F5F5"/>
<g id="DashLite" clip-path="url(#clip0_1_2)">
<rect width="1920" height="3203" transform="translate(-1851 -31)" fill="#F4F4F4"/>
<g id="Main Grid">
<g id="Top Nav">
<rect width="1635" height="96" transform="translate(-1566 -31)" fill="#FAFAFA"/>
<g id="Right Icon">
<g id="mdi:account">
<path id="Vector" d="M16.5 6C17.9587 6 19.3576 6.57946 20.3891 7.61091C21.4205 8.64236 22 10.0413 22 11.5C22 12.9587 21.4205 14.3576 20.3891 15.3891C19.3576 16.4205 17.9587 17 16.5 17C15.0413 17 13.6424 16.4205 12.6109 15.3891C11.5795 14.3576 11 12.9587 11 11.5C11 10.0413 11.5795 8.64236 12.6109 7.61091C13.6424 6.57946 15.0413 6 16.5 6ZM16.5 19.75C22.5775 19.75 27.5 22.2112 27.5 25.25V28H5.5V25.25C5.5 22.2112 10.4225 19.75 16.5 19.75Z" fill="#383838"/>
</g>
</g>
</g>
</g>
</g>
<defs>
<clipPath id="clip0_1_2">
<rect width="1920" height="3203" fill="white" transform="translate(-1851 -31)"/>
</clipPath>
</defs>
</svg>
