<svg width="33" height="34" viewBox="0 0 33 34" fill="none" xmlns="http://www.w3.org/2000/svg">
<path d="M13.75 29.375H19.25C19.25 30.8875 18.0125 32.125 16.5 32.125C14.9875 32.125 13.75 30.8875 13.75 29.375ZM28.875 26.625V28H4.125V26.625L6.875 23.875V15.625C6.875 11.3625 9.625 7.65 13.75 6.4125V6C13.75 4.4875 14.9875 3.25 16.5 3.25C18.0125 3.25 19.25 4.4875 19.25 6V6.4125C23.375 7.65 26.125 11.3625 26.125 15.625V23.875L28.875 26.625ZM23.375 15.625C23.375 11.775 20.35 8.75 16.5 8.75C12.65 8.75 9.625 11.775 9.625 15.625V25.25H23.375V15.625Z" fill="#383838"/>
</svg>
