<svg width="33" height="34" viewBox="0 0 33 34" fill="none" xmlns="http://www.w3.org/2000/svg">
<path d="M13.0625 4.625C15.4329 4.625 17.7062 5.56663 19.3823 7.24273C21.0584 8.91884 22 11.1921 22 13.5625C22 15.7762 21.1887 17.8112 19.855 19.3787L20.2262 19.75H21.3125L28.1875 26.625L26.125 28.6875L19.25 21.8125V20.7262L18.8787 20.355C17.257 21.7393 15.1947 22.4999 13.0625 22.5C10.6921 22.5 8.41884 21.5584 6.74273 19.8823C5.06663 18.2062 4.125 15.9329 4.125 13.5625C4.125 11.1921 5.06663 8.91884 6.74273 7.24273C8.41884 5.56663 10.6921 4.625 13.0625 4.625ZM13.0625 7.375C9.625 7.375 6.875 10.125 6.875 13.5625C6.875 17 9.625 19.75 13.0625 19.75C16.5 19.75 19.25 17 19.25 13.5625C19.25 10.125 16.5 7.375 13.0625 7.375Z" fill="#383838"/>
</svg>
